<svg xmlns="http://www.w3.org/2000/svg" viewBox="0 0 900 720" role="img" aria-labelledby="title desc">
  <title id="title">Sunlit forest path</title><desc id="desc">An editable scenic illustration of a person walking through a forest toward a mountain valley.</desc>
  <defs><linearGradient id="sky" x2="0" y2="1"><stop stop-color="#fff4ce"/><stop offset=".55" stop-color="#d9b55f"/><stop offset="1" stop-color="#546336"/></linearGradient><linearGradient id="ground" x2="0" y2="1"><stop stop-color="#627041"/><stop offset="1" stop-color="#102918"/></linearGradient><radialGradient id="sun"><stop stop-color="#fff"/><stop offset=".3" stop-color="#ffe9ad"/><stop offset="1" stop-color="#f1c65a" stop-opacity="0"/></radialGradient></defs>
  <rect width="900" height="720" fill="url(#sky)"/><circle cx="675" cy="105" r="150" fill="url(#sun)"/><path d="M320 290 470 120 580 280 690 145 900 330V500H180Z" fill="#697049" opacity=".78"/><path d="M340 325 490 195 585 318 700 225 900 360V510H200Z" fill="#384b31"/>
  <path d="M0 365Q210 315 410 390T900 340V720H0Z" fill="url(#ground)"/><path d="M600 720C530 600 548 475 710 335C625 456 655 580 785 720Z" fill="#d3ab67"/><path d="M648 720C589 590 607 474 710 335C651 496 699 589 757 720Z" fill="#f0d091" opacity=".55"/>
  <g fill="#172e1d"><path d="M0 0h80v720H0z"/><path d="M92 0h22v600H92z"/><path d="M162 0h30v520h-30z"/><path d="M820 0h80v720h-80z"/><path d="M780 0h22v620h-22z"/></g><g fill="#2f4b27"><circle cx="105" cy="140" r="120"/><circle cx="770" cy="150" r="135"/><circle cx="50" cy="315" r="120"/><circle cx="860" cy="350" r="145"/></g>
  <g fill="#152016"><circle cx="515" cy="310" r="28"/><path d="M475 344q42-32 83 0l18 170h-115z"/><path d="M467 375 430 490l26 9 46-103z"/><path d="m558 372 40 117-25 10-49-104z"/><path d="m478 505-23 158h29l35-150z"/><path d="m550 505 27 158h-29l-35-150z"/></g><g fill="#5c7440"><path d="M15 650q70-95 150 0-95-45-150 0z"/><path d="M735 640q70-120 145 0-90-55-145 0z"/></g>
</svg>
